<mxfile host="app.diagrams.net" modified="2023-09-03T07:50:01.815Z" agent="Mozilla/5.0 (Macintosh; Intel Mac OS X 10_15_7) AppleWebKit/537.36 (KHTML, like Gecko) Chrome/116.0.0.0 Safari/537.36" etag="fGJwUHkg7hKRGmluVqhr" version="21.7.2" type="device">
  <diagram id="6I0OCvxSQrVGMHxT2VVA" name="Page-1">
    <mxGraphModel dx="1293" dy="833" grid="1" gridSize="10" guides="1" tooltips="1" connect="1" arrows="1" fold="1" page="1" pageScale="1" pageWidth="827" pageHeight="1169" math="0" shadow="0">
      <root>
        <mxCell id="0" />
        <mxCell id="1" parent="0" />
        <mxCell id="dKdSaXE48SgPbhcamS2K-62" value="" style="html=1;whiteSpace=wrap;fillColor=#ffff99;shape=mxgraph.archimate3.actor;fontSize=14;" parent="1" vertex="1">
          <mxGeometry x="5" y="200" width="40" height="80" as="geometry" />
        </mxCell>
        <mxCell id="LYYoM3A4QA68Y9D6bjCF-6" value="Database" style="shape=cube;whiteSpace=wrap;html=1;boundedLbl=1;backgroundOutline=1;darkOpacity=0.05;darkOpacity2=0.1;fillColor=#99ffff;strokeColor=#6c8ebf;" vertex="1" parent="1">
          <mxGeometry x="240" y="320" width="120" height="80" as="geometry" />
        </mxCell>
        <mxCell id="LYYoM3A4QA68Y9D6bjCF-7" value="Actor queries animal related inspection results in date range" style="html=1;outlineConnect=0;whiteSpace=wrap;fillColor=#99ffff;shape=mxgraph.archimate3.application;appType=interface;archiType=square;" vertex="1" parent="1">
          <mxGeometry x="70" y="200" width="140" height="80" as="geometry" />
        </mxCell>
        <mxCell id="LYYoM3A4QA68Y9D6bjCF-8" value="Tool Searches Database" style="html=1;outlineConnect=0;whiteSpace=wrap;fillColor=#99ffff;shape=mxgraph.archimate3.process;" vertex="1" parent="1">
          <mxGeometry x="240" y="202.5" width="120" height="75" as="geometry" />
        </mxCell>
        <mxCell id="LYYoM3A4QA68Y9D6bjCF-10" value="Tools lists instances of queried items contained in database" style="html=1;outlineConnect=0;whiteSpace=wrap;fillColor=#99ffff;shape=mxgraph.archimate3.application;appType=func;archiType=rounded;" vertex="1" parent="1">
          <mxGeometry x="400" y="200" width="200" height="80" as="geometry" />
        </mxCell>
        <mxCell id="LYYoM3A4QA68Y9D6bjCF-11" value="Actor returns to main page for new query" style="html=1;outlineConnect=0;whiteSpace=wrap;fillColor=#99ffff;shape=mxgraph.archimate3.application;appType=interface;archiType=square;" vertex="1" parent="1">
          <mxGeometry x="707" y="200" width="120" height="80" as="geometry" />
        </mxCell>
        <mxCell id="LYYoM3A4QA68Y9D6bjCF-12" value="Dataset Function" style="html=1;outlineConnect=0;whiteSpace=wrap;fillColor=#99ffff;shape=mxgraph.archimate3.application;appType=interaction;archiType=rounded;" vertex="1" parent="1">
          <mxGeometry x="560" y="320" width="120" height="80" as="geometry" />
        </mxCell>
        <mxCell id="LYYoM3A4QA68Y9D6bjCF-13" value="&lt;table cellpadding=&quot;0&quot; cellspacing=&quot;0&quot; style=&quot;font-size:1em;width:100%;height:100%;&quot;&gt;&lt;tbody&gt;&lt;tr style=&quot;height:20px;&quot;&gt;&lt;td&gt;&lt;/td&gt;&lt;/tr&gt;&lt;tr&gt;&lt;td valign=&quot;top&quot; style=&quot;padding:4px;&quot;&gt;Statistical data displayed for user analysis&lt;/td&gt;&lt;/tr&gt;&lt;/tbody&gt;&lt;/table&gt;" style="html=1;outlineConnect=0;whiteSpace=wrap;fillColor=#99ffff;shape=mxgraph.archimate3.businessObject;overflow=fill;align=center;" vertex="1" parent="1">
          <mxGeometry x="707" y="320" width="120" height="80" as="geometry" />
        </mxCell>
        <mxCell id="LYYoM3A4QA68Y9D6bjCF-14" value="Visualisation Menu Function" style="html=1;outlineConnect=0;whiteSpace=wrap;fillColor=#99ffff;shape=mxgraph.archimate3.application;appType=interaction;archiType=rounded;" vertex="1" parent="1">
          <mxGeometry x="560" y="80" width="120" height="80" as="geometry" />
        </mxCell>
        <mxCell id="LYYoM3A4QA68Y9D6bjCF-15" value="&lt;table cellpadding=&quot;0&quot; cellspacing=&quot;0&quot; style=&quot;font-size:1em;width:100%;height:100%;&quot;&gt;&lt;tbody&gt;&lt;tr style=&quot;height:20px;&quot;&gt;&lt;td align=&quot;center&quot;&gt;&lt;/td&gt;&lt;/tr&gt;&lt;tr&gt;&lt;td valign=&quot;top&quot; style=&quot;padding:4px;&quot;&gt;Statistical data visualised for user analysis&lt;/td&gt;&lt;/tr&gt;&lt;/tbody&gt;&lt;/table&gt;" style="html=1;outlineConnect=0;whiteSpace=wrap;fillColor=#99ffff;shape=mxgraph.archimate3.businessObject;overflow=fill" vertex="1" parent="1">
          <mxGeometry x="707" y="80" width="120" height="80" as="geometry" />
        </mxCell>
        <mxCell id="LYYoM3A4QA68Y9D6bjCF-16" value="" style="endArrow=classic;startArrow=classic;html=1;rounded=0;exitX=0.75;exitY=0;exitDx=0;exitDy=0;exitPerimeter=0;entryX=0.75;entryY=1;entryDx=0;entryDy=0;entryPerimeter=0;" edge="1" parent="1" source="LYYoM3A4QA68Y9D6bjCF-12" target="LYYoM3A4QA68Y9D6bjCF-14">
          <mxGeometry width="50" height="50" relative="1" as="geometry">
            <mxPoint x="630" y="250" as="sourcePoint" />
            <mxPoint x="640" y="170" as="targetPoint" />
          </mxGeometry>
        </mxCell>
        <mxCell id="LYYoM3A4QA68Y9D6bjCF-19" value="" style="endArrow=classic;html=1;rounded=0;exitX=1;exitY=0.5;exitDx=0;exitDy=0;exitPerimeter=0;" edge="1" parent="1" source="LYYoM3A4QA68Y9D6bjCF-14" target="LYYoM3A4QA68Y9D6bjCF-15">
          <mxGeometry width="50" height="50" relative="1" as="geometry">
            <mxPoint x="630" y="250" as="sourcePoint" />
            <mxPoint x="680" y="200" as="targetPoint" />
          </mxGeometry>
        </mxCell>
        <mxCell id="LYYoM3A4QA68Y9D6bjCF-20" value="" style="endArrow=classic;html=1;rounded=0;exitX=1;exitY=0.5;exitDx=0;exitDy=0;exitPerimeter=0;" edge="1" parent="1" source="LYYoM3A4QA68Y9D6bjCF-12" target="LYYoM3A4QA68Y9D6bjCF-13">
          <mxGeometry width="50" height="50" relative="1" as="geometry">
            <mxPoint x="630" y="250" as="sourcePoint" />
            <mxPoint x="680" y="200" as="targetPoint" />
          </mxGeometry>
        </mxCell>
        <mxCell id="LYYoM3A4QA68Y9D6bjCF-21" value="" style="endArrow=classic;html=1;rounded=0;exitX=0.5;exitY=1;exitDx=0;exitDy=0;exitPerimeter=0;entryX=0.5;entryY=0;entryDx=0;entryDy=0;entryPerimeter=0;" edge="1" parent="1" source="LYYoM3A4QA68Y9D6bjCF-15" target="LYYoM3A4QA68Y9D6bjCF-11">
          <mxGeometry width="50" height="50" relative="1" as="geometry">
            <mxPoint x="630" y="250" as="sourcePoint" />
            <mxPoint x="680" y="200" as="targetPoint" />
          </mxGeometry>
        </mxCell>
        <mxCell id="LYYoM3A4QA68Y9D6bjCF-22" value="" style="endArrow=classic;html=1;rounded=0;exitX=0.5;exitY=0;exitDx=0;exitDy=0;exitPerimeter=0;" edge="1" parent="1" source="LYYoM3A4QA68Y9D6bjCF-13" target="LYYoM3A4QA68Y9D6bjCF-11">
          <mxGeometry width="50" height="50" relative="1" as="geometry">
            <mxPoint x="630" y="250" as="sourcePoint" />
            <mxPoint x="680" y="200" as="targetPoint" />
          </mxGeometry>
        </mxCell>
        <mxCell id="LYYoM3A4QA68Y9D6bjCF-23" value="" style="endArrow=none;dashed=1;html=1;rounded=0;entryX=0;entryY=0.5;entryDx=0;entryDy=0;entryPerimeter=0;exitX=0.5;exitY=0;exitDx=0;exitDy=0;exitPerimeter=0;startArrow=classic;startFill=1;" edge="1" parent="1" source="LYYoM3A4QA68Y9D6bjCF-7" target="LYYoM3A4QA68Y9D6bjCF-11">
          <mxGeometry width="50" height="50" relative="1" as="geometry">
            <mxPoint x="630" y="250" as="sourcePoint" />
            <mxPoint x="680" y="200" as="targetPoint" />
            <Array as="points">
              <mxPoint x="140" y="180" />
              <mxPoint x="680" y="180" />
              <mxPoint x="680" y="240" />
            </Array>
          </mxGeometry>
        </mxCell>
        <mxCell id="LYYoM3A4QA68Y9D6bjCF-24" value="" style="endArrow=classic;html=1;rounded=0;exitX=1;exitY=0.5;exitDx=0;exitDy=0;exitPerimeter=0;entryX=0;entryY=0.5;entryDx=0;entryDy=0;entryPerimeter=0;" edge="1" parent="1" source="LYYoM3A4QA68Y9D6bjCF-7" target="LYYoM3A4QA68Y9D6bjCF-8">
          <mxGeometry width="50" height="50" relative="1" as="geometry">
            <mxPoint x="390" y="250" as="sourcePoint" />
            <mxPoint x="440" y="200" as="targetPoint" />
          </mxGeometry>
        </mxCell>
        <mxCell id="LYYoM3A4QA68Y9D6bjCF-25" value="" style="endArrow=classic;html=1;rounded=0;exitX=1;exitY=0.5;exitDx=0;exitDy=0;exitPerimeter=0;entryX=0;entryY=0.5;entryDx=0;entryDy=0;entryPerimeter=0;" edge="1" parent="1" source="LYYoM3A4QA68Y9D6bjCF-8" target="LYYoM3A4QA68Y9D6bjCF-10">
          <mxGeometry width="50" height="50" relative="1" as="geometry">
            <mxPoint x="390" y="250" as="sourcePoint" />
            <mxPoint x="440" y="200" as="targetPoint" />
          </mxGeometry>
        </mxCell>
        <mxCell id="LYYoM3A4QA68Y9D6bjCF-26" value="" style="endArrow=none;html=1;rounded=0;entryX=0.3;entryY=0.7;entryDx=0;entryDy=0;entryPerimeter=0;" edge="1" parent="1" target="LYYoM3A4QA68Y9D6bjCF-8">
          <mxGeometry width="50" height="50" relative="1" as="geometry">
            <mxPoint x="290" y="320" as="sourcePoint" />
            <mxPoint x="340" y="290" as="targetPoint" />
            <Array as="points">
              <mxPoint x="290" y="280" />
              <mxPoint x="276" y="280" />
            </Array>
          </mxGeometry>
        </mxCell>
        <mxCell id="LYYoM3A4QA68Y9D6bjCF-27" value="" style="endArrow=classic;html=1;rounded=0;entryX=0;entryY=0.5;entryDx=0;entryDy=0;entryPerimeter=0;" edge="1" parent="1" source="dKdSaXE48SgPbhcamS2K-62" target="LYYoM3A4QA68Y9D6bjCF-7">
          <mxGeometry width="50" height="50" relative="1" as="geometry">
            <mxPoint x="280" y="250" as="sourcePoint" />
            <mxPoint x="330" y="200" as="targetPoint" />
          </mxGeometry>
        </mxCell>
        <mxCell id="LYYoM3A4QA68Y9D6bjCF-28" value="Actor" style="text;html=1;align=center;verticalAlign=middle;resizable=0;points=[];autosize=1;strokeColor=none;fillColor=none;" vertex="1" parent="1">
          <mxGeometry y="280" width="50" height="30" as="geometry" />
        </mxCell>
        <mxCell id="LYYoM3A4QA68Y9D6bjCF-29" value="" style="html=1;whiteSpace=wrap;fillColor=#ffff99;shape=mxgraph.archimate3.actor;fontSize=14;" vertex="1" parent="1">
          <mxGeometry x="5" y="840" width="40" height="80" as="geometry" />
        </mxCell>
        <mxCell id="LYYoM3A4QA68Y9D6bjCF-30" value="Actor" style="text;html=1;align=center;verticalAlign=middle;resizable=0;points=[];autosize=1;strokeColor=none;fillColor=none;" vertex="1" parent="1">
          <mxGeometry y="920" width="50" height="30" as="geometry" />
        </mxCell>
        <mxCell id="LYYoM3A4QA68Y9D6bjCF-31" value="" style="endArrow=classic;html=1;rounded=0;entryX=0;entryY=0.5;entryDx=0;entryDy=0;entryPerimeter=0;" edge="1" parent="1">
          <mxGeometry width="50" height="50" relative="1" as="geometry">
            <mxPoint x="45" y="879.85" as="sourcePoint" />
            <mxPoint x="70" y="879.85" as="targetPoint" />
          </mxGeometry>
        </mxCell>
        <mxCell id="LYYoM3A4QA68Y9D6bjCF-32" value="Actor selects prior query details from main menu" style="html=1;outlineConnect=0;whiteSpace=wrap;fillColor=#99ffff;shape=mxgraph.archimate3.application;appType=interface;archiType=square;" vertex="1" parent="1">
          <mxGeometry x="70" y="840" width="140" height="80" as="geometry" />
        </mxCell>
        <mxCell id="LYYoM3A4QA68Y9D6bjCF-33" value="Tools lists history of queries for actor selection&amp;nbsp;" style="html=1;outlineConnect=0;whiteSpace=wrap;fillColor=#99ffff;shape=mxgraph.archimate3.application;appType=func;archiType=rounded;" vertex="1" parent="1">
          <mxGeometry x="240" y="840" width="200" height="80" as="geometry" />
        </mxCell>
        <mxCell id="LYYoM3A4QA68Y9D6bjCF-34" value="Database" style="shape=cube;whiteSpace=wrap;html=1;boundedLbl=1;backgroundOutline=1;darkOpacity=0.05;darkOpacity2=0.1;fillColor=#99ffff;strokeColor=#6c8ebf;" vertex="1" parent="1">
          <mxGeometry x="280" y="720" width="120" height="80" as="geometry" />
        </mxCell>
        <mxCell id="LYYoM3A4QA68Y9D6bjCF-35" value="" style="endArrow=classic;html=1;rounded=0;exitX=0.5;exitY=1;exitDx=0;exitDy=0;exitPerimeter=0;entryX=0;entryY=0.5;entryDx=0;entryDy=0;entryPerimeter=0;" edge="1" parent="1" source="LYYoM3A4QA68Y9D6bjCF-10" target="LYYoM3A4QA68Y9D6bjCF-12">
          <mxGeometry relative="1" as="geometry">
            <mxPoint x="440" y="340" as="sourcePoint" />
            <mxPoint x="540" y="340" as="targetPoint" />
          </mxGeometry>
        </mxCell>
        <mxCell id="LYYoM3A4QA68Y9D6bjCF-36" value="Selection" style="edgeLabel;resizable=0;html=1;align=center;verticalAlign=middle;" connectable="0" vertex="1" parent="LYYoM3A4QA68Y9D6bjCF-35">
          <mxGeometry relative="1" as="geometry" />
        </mxCell>
        <mxCell id="LYYoM3A4QA68Y9D6bjCF-37" value="" style="endArrow=classic;html=1;rounded=0;exitX=0.5;exitY=0;exitDx=0;exitDy=0;exitPerimeter=0;entryX=0;entryY=0.5;entryDx=0;entryDy=0;entryPerimeter=0;" edge="1" parent="1" source="LYYoM3A4QA68Y9D6bjCF-10" target="LYYoM3A4QA68Y9D6bjCF-14">
          <mxGeometry relative="1" as="geometry">
            <mxPoint x="490" y="122.5" as="sourcePoint" />
            <mxPoint x="550" y="202.5" as="targetPoint" />
          </mxGeometry>
        </mxCell>
        <mxCell id="LYYoM3A4QA68Y9D6bjCF-38" value="Selection" style="edgeLabel;resizable=0;html=1;align=center;verticalAlign=middle;" connectable="0" vertex="1" parent="LYYoM3A4QA68Y9D6bjCF-37">
          <mxGeometry relative="1" as="geometry" />
        </mxCell>
        <mxCell id="LYYoM3A4QA68Y9D6bjCF-40" value="Dataset Function" style="html=1;outlineConnect=0;whiteSpace=wrap;fillColor=#99ffff;shape=mxgraph.archimate3.application;appType=interaction;archiType=rounded;" vertex="1" parent="1">
          <mxGeometry x="560" y="960" width="120" height="80" as="geometry" />
        </mxCell>
        <mxCell id="LYYoM3A4QA68Y9D6bjCF-41" value="Visualisation Menu Function" style="html=1;outlineConnect=0;whiteSpace=wrap;fillColor=#99ffff;shape=mxgraph.archimate3.application;appType=interaction;archiType=rounded;" vertex="1" parent="1">
          <mxGeometry x="560" y="720" width="120" height="80" as="geometry" />
        </mxCell>
        <mxCell id="LYYoM3A4QA68Y9D6bjCF-42" value="&lt;table cellpadding=&quot;0&quot; cellspacing=&quot;0&quot; style=&quot;font-size:1em;width:100%;height:100%;&quot;&gt;&lt;tbody&gt;&lt;tr style=&quot;height:20px;&quot;&gt;&lt;td&gt;&lt;/td&gt;&lt;/tr&gt;&lt;tr&gt;&lt;td valign=&quot;top&quot; style=&quot;padding:4px;&quot;&gt;Statistical data displayed for user analysis&lt;/td&gt;&lt;/tr&gt;&lt;/tbody&gt;&lt;/table&gt;" style="html=1;outlineConnect=0;whiteSpace=wrap;fillColor=#99ffff;shape=mxgraph.archimate3.businessObject;overflow=fill;align=center;" vertex="1" parent="1">
          <mxGeometry x="707" y="960" width="120" height="80" as="geometry" />
        </mxCell>
        <mxCell id="LYYoM3A4QA68Y9D6bjCF-43" value="Actor returns to query history or main page for new query" style="html=1;outlineConnect=0;whiteSpace=wrap;fillColor=#99ffff;shape=mxgraph.archimate3.application;appType=interface;archiType=square;" vertex="1" parent="1">
          <mxGeometry x="707" y="840" width="120" height="80" as="geometry" />
        </mxCell>
        <mxCell id="LYYoM3A4QA68Y9D6bjCF-44" value="&lt;table cellpadding=&quot;0&quot; cellspacing=&quot;0&quot; style=&quot;font-size:1em;width:100%;height:100%;&quot;&gt;&lt;tbody&gt;&lt;tr style=&quot;height:20px;&quot;&gt;&lt;td align=&quot;center&quot;&gt;&lt;/td&gt;&lt;/tr&gt;&lt;tr&gt;&lt;td valign=&quot;top&quot; style=&quot;padding:4px;&quot;&gt;Statistical data visualised for user analysis&lt;/td&gt;&lt;/tr&gt;&lt;/tbody&gt;&lt;/table&gt;" style="html=1;outlineConnect=0;whiteSpace=wrap;fillColor=#99ffff;shape=mxgraph.archimate3.businessObject;overflow=fill" vertex="1" parent="1">
          <mxGeometry x="707" y="720" width="120" height="80" as="geometry" />
        </mxCell>
        <mxCell id="LYYoM3A4QA68Y9D6bjCF-45" value="" style="endArrow=classic;html=1;rounded=0;exitX=1;exitY=1;exitDx=-2.9;exitDy=-2.9;exitPerimeter=0;entryX=0;entryY=0.5;entryDx=0;entryDy=0;entryPerimeter=0;" edge="1" parent="1" source="LYYoM3A4QA68Y9D6bjCF-33" target="LYYoM3A4QA68Y9D6bjCF-40">
          <mxGeometry relative="1" as="geometry">
            <mxPoint x="440" y="980" as="sourcePoint" />
            <mxPoint x="500" y="1060" as="targetPoint" />
          </mxGeometry>
        </mxCell>
        <mxCell id="LYYoM3A4QA68Y9D6bjCF-46" value="Selection" style="edgeLabel;resizable=0;html=1;align=center;verticalAlign=middle;" connectable="0" vertex="1" parent="LYYoM3A4QA68Y9D6bjCF-45">
          <mxGeometry relative="1" as="geometry" />
        </mxCell>
        <mxCell id="LYYoM3A4QA68Y9D6bjCF-47" value="" style="endArrow=classic;html=1;rounded=0;exitX=1;exitY=0;exitDx=-2.9;exitDy=2.9;exitPerimeter=0;entryX=0;entryY=0.5;entryDx=0;entryDy=0;entryPerimeter=0;" edge="1" parent="1" source="LYYoM3A4QA68Y9D6bjCF-33" target="LYYoM3A4QA68Y9D6bjCF-41">
          <mxGeometry relative="1" as="geometry">
            <mxPoint x="470" y="850" as="sourcePoint" />
            <mxPoint x="593" y="933" as="targetPoint" />
          </mxGeometry>
        </mxCell>
        <mxCell id="LYYoM3A4QA68Y9D6bjCF-48" value="Selection" style="edgeLabel;resizable=0;html=1;align=center;verticalAlign=middle;" connectable="0" vertex="1" parent="LYYoM3A4QA68Y9D6bjCF-47">
          <mxGeometry relative="1" as="geometry" />
        </mxCell>
        <mxCell id="LYYoM3A4QA68Y9D6bjCF-49" value="" style="endArrow=classic;html=1;rounded=0;exitX=1;exitY=0.5;exitDx=0;exitDy=0;exitPerimeter=0;entryX=0;entryY=0.5;entryDx=0;entryDy=0;entryPerimeter=0;" edge="1" parent="1" source="LYYoM3A4QA68Y9D6bjCF-32" target="LYYoM3A4QA68Y9D6bjCF-33">
          <mxGeometry width="50" height="50" relative="1" as="geometry">
            <mxPoint x="400" y="920" as="sourcePoint" />
            <mxPoint x="450" y="870" as="targetPoint" />
          </mxGeometry>
        </mxCell>
        <mxCell id="LYYoM3A4QA68Y9D6bjCF-50" value="" style="endArrow=classic;startArrow=classic;html=1;rounded=0;entryX=0.5;entryY=1;entryDx=0;entryDy=0;entryPerimeter=0;exitX=0.5;exitY=0;exitDx=0;exitDy=0;exitPerimeter=0;" edge="1" parent="1" source="LYYoM3A4QA68Y9D6bjCF-40" target="LYYoM3A4QA68Y9D6bjCF-41">
          <mxGeometry width="50" height="50" relative="1" as="geometry">
            <mxPoint x="400" y="920" as="sourcePoint" />
            <mxPoint x="450" y="870" as="targetPoint" />
          </mxGeometry>
        </mxCell>
        <mxCell id="LYYoM3A4QA68Y9D6bjCF-51" value="" style="endArrow=classic;html=1;rounded=0;exitX=1;exitY=0.5;exitDx=0;exitDy=0;exitPerimeter=0;entryX=0;entryY=0.5;entryDx=0;entryDy=0;entryPerimeter=0;" edge="1" parent="1" source="LYYoM3A4QA68Y9D6bjCF-40" target="LYYoM3A4QA68Y9D6bjCF-42">
          <mxGeometry width="50" height="50" relative="1" as="geometry">
            <mxPoint x="580" y="920" as="sourcePoint" />
            <mxPoint x="630" y="870" as="targetPoint" />
          </mxGeometry>
        </mxCell>
        <mxCell id="LYYoM3A4QA68Y9D6bjCF-52" value="" style="endArrow=classic;html=1;rounded=0;exitX=1;exitY=0.5;exitDx=0;exitDy=0;exitPerimeter=0;entryX=0;entryY=0.5;entryDx=0;entryDy=0;entryPerimeter=0;" edge="1" parent="1" source="LYYoM3A4QA68Y9D6bjCF-41" target="LYYoM3A4QA68Y9D6bjCF-44">
          <mxGeometry width="50" height="50" relative="1" as="geometry">
            <mxPoint x="580" y="920" as="sourcePoint" />
            <mxPoint x="630" y="870" as="targetPoint" />
          </mxGeometry>
        </mxCell>
        <mxCell id="LYYoM3A4QA68Y9D6bjCF-53" value="" style="endArrow=classic;html=1;rounded=0;exitX=0.5;exitY=1;exitDx=0;exitDy=0;exitPerimeter=0;entryX=0.5;entryY=0;entryDx=0;entryDy=0;entryPerimeter=0;" edge="1" parent="1" source="LYYoM3A4QA68Y9D6bjCF-44" target="LYYoM3A4QA68Y9D6bjCF-43">
          <mxGeometry width="50" height="50" relative="1" as="geometry">
            <mxPoint x="580" y="920" as="sourcePoint" />
            <mxPoint x="630" y="870" as="targetPoint" />
          </mxGeometry>
        </mxCell>
        <mxCell id="LYYoM3A4QA68Y9D6bjCF-54" value="" style="endArrow=classic;html=1;rounded=0;exitX=0.5;exitY=0;exitDx=0;exitDy=0;exitPerimeter=0;entryX=0.5;entryY=1;entryDx=0;entryDy=0;entryPerimeter=0;" edge="1" parent="1" source="LYYoM3A4QA68Y9D6bjCF-42" target="LYYoM3A4QA68Y9D6bjCF-43">
          <mxGeometry width="50" height="50" relative="1" as="geometry">
            <mxPoint x="580" y="920" as="sourcePoint" />
            <mxPoint x="630" y="870" as="targetPoint" />
          </mxGeometry>
        </mxCell>
        <mxCell id="LYYoM3A4QA68Y9D6bjCF-55" value="" style="endArrow=none;dashed=1;html=1;rounded=0;entryX=0;entryY=0.5;entryDx=0;entryDy=0;entryPerimeter=0;exitX=0.5;exitY=1;exitDx=0;exitDy=0;exitPerimeter=0;startArrow=classic;startFill=1;" edge="1" parent="1" source="LYYoM3A4QA68Y9D6bjCF-32" target="LYYoM3A4QA68Y9D6bjCF-43">
          <mxGeometry width="50" height="50" relative="1" as="geometry">
            <mxPoint x="470" y="920" as="sourcePoint" />
            <mxPoint x="520" y="870" as="targetPoint" />
            <Array as="points">
              <mxPoint x="140" y="940" />
              <mxPoint x="560" y="940" />
              <mxPoint x="560" y="880" />
            </Array>
          </mxGeometry>
        </mxCell>
        <mxCell id="LYYoM3A4QA68Y9D6bjCF-56" value="" style="endArrow=classic;html=1;rounded=0;exitX=0;exitY=0;exitDx=70;exitDy=80;exitPerimeter=0;entryX=0.5;entryY=0;entryDx=0;entryDy=0;entryPerimeter=0;" edge="1" parent="1" source="LYYoM3A4QA68Y9D6bjCF-34" target="LYYoM3A4QA68Y9D6bjCF-33">
          <mxGeometry width="50" height="50" relative="1" as="geometry">
            <mxPoint x="370" y="920" as="sourcePoint" />
            <mxPoint x="420" y="870" as="targetPoint" />
            <Array as="points">
              <mxPoint x="350" y="820" />
              <mxPoint x="340" y="820" />
            </Array>
          </mxGeometry>
        </mxCell>
        <mxCell id="LYYoM3A4QA68Y9D6bjCF-58" value="" style="endArrow=none;dashed=1;html=1;rounded=0;exitX=1;exitY=0.5;exitDx=0;exitDy=0;exitPerimeter=0;" edge="1" parent="1" source="LYYoM3A4QA68Y9D6bjCF-33">
          <mxGeometry width="50" height="50" relative="1" as="geometry">
            <mxPoint x="470" y="920" as="sourcePoint" />
            <mxPoint x="560" y="880" as="targetPoint" />
          </mxGeometry>
        </mxCell>
      </root>
    </mxGraphModel>
  </diagram>
</mxfile>
